<?xml version="1.0" encoding="UTF-8"?>
<svg version="1.1" xmlns="http://www.w3.org/2000/svg" width="405" height="405">
<path d="M0 0 C133.65 0 267.3 0 405 0 C405 133.65 405 267.3 405 405 C271.35 405 137.7 405 0 405 C0 271.35 0 137.7 0 0 Z " fill="#622CA3" transform="translate(0,0)"/>
<path d="M0 0 C9.48682058 5.1848762 16.02269966 14.14751742 20 24 C20.9375 27.4375 20.9375 27.4375 21 30 C20.01 31.485 20.01 31.485 19 33 C14.19091797 32.57566923 11.22860983 30.4161301 8 27 C3.25108703 21.1560707 0.73562846 15.2926845 -1 8 C-1.33 8.33 -1.66 8.66 -2 9 C-1.77146824 11.1534724 -1.46695594 13.29910428 -1.125 15.4375 C-0.94195312 16.61183594 -0.75890625 17.78617188 -0.5703125 18.99609375 C-0.15838374 21.91034257 -0.15838374 21.91034257 1 24 C1.039992 25.99960012 1.04346799 28.00047242 1 30 C0.43410156 29.566875 -0.13179688 29.13375 -0.71484375 28.6875 C-1.81505859 27.8521875 -1.81505859 27.8521875 -2.9375 27 C-4.03384766 26.1646875 -4.03384766 26.1646875 -5.15234375 25.3125 C-6.75814368 23.90348055 -6.75814368 23.90348055 -8 24 C-7.25234375 24.71285156 -6.5046875 25.42570312 -5.734375 26.16015625 C8.6320815 40.05283311 8.6320815 40.05283311 9.1328125 49.5078125 C9.13023437 50.37148437 9.12765625 51.23515625 9.125 52.125 C9.5547698 58.2492196 12.17153671 61.73502909 15.9921875 66.39453125 C21.57686727 73.64157678 21.90418777 80.09722815 21 89 C20.12553139 92.30055843 19.15538766 95.31907029 17 98 C13.97201491 99.21380437 10.98132401 99.10501742 7.75 99.0625 C6.41195312 99.04896484 6.41195312 99.04896484 5.046875 99.03515625 C4.37140625 99.02355469 3.6959375 99.01195312 3 99 C3.33 97.35 3.66 95.7 4 94 C3.36384766 94.68835938 3.36384766 94.68835938 2.71484375 95.390625 C-3.22280117 101.60231507 -7.63472206 105.16065554 -16.375 105.75 C-28.24809696 105.43253751 -38.69714176 98.9255959 -48 92 C-41.15082538 99.35551837 -41.15082538 99.35551837 -33 105 C-33 105.66 -33 106.32 -33 107 C-37.29 107.33 -41.58 107.66 -46 108 C-45.81824219 109.08152344 -45.63648438 110.16304688 -45.44921875 111.27734375 C-43.8624464 120.91078663 -42.49266712 130.55806496 -41.3125 140.25 C-41.11563599 141.83735962 -41.11563599 141.83735962 -40.91479492 143.45678711 C-40.29498557 148.6650979 -39.73188814 153.75370307 -40 159 C-41 160 -41 160 -44.0625 160.0625 C-45.031875 160.041875 -46.00125 160.02125 -47 160 C-47.21914062 159.443125 -47.43828125 158.88625 -47.6640625 158.3125 C-51.30898452 149.54098035 -55.27600014 143.40658816 -63.75390625 138.8125 C-66.29818171 137.89213601 -68.31460156 137.84897583 -71 138 C-70.35933594 138.24492187 -69.71867187 138.48984375 -69.05859375 138.7421875 C-60.52051839 142.43226478 -56.4568693 147.53218998 -52.68359375 155.9296875 C-49.97538601 163.19561071 -48.23830934 170.80945776 -50.80078125 178.359375 C-52.87199913 182.74172017 -55.02597726 186.0623392 -59.5 188.1875 C-66.1630389 189.73427689 -72.47970928 190.37520575 -78.5 186.6875 C-82.3306667 183.98493218 -84.99069477 181.41966905 -86.9375 177.125 C-89.27438938 172.30130759 -92.0424579 168.71558945 -96.1875 165.3125 C-99.82839963 162.31887142 -99.82839963 162.31887142 -100.2734375 158.8984375 C-100.59258504 150.96884861 -98.40673342 146.76992462 -93.16796875 140.97265625 C-89.89200147 137.60622834 -86.44086828 134.4920105 -82.875 131.4375 C-77.65862303 126.93991513 -71.55816972 121.66832856 -70.69921875 114.484375 C-70.6725145 108.2533844 -71.42554503 103.68525472 -74 98 C-74.99 98 -75.98 98 -77 98 C-77.99 96.02 -78.98 94.04 -80 92 C-80.99 92 -81.98 92 -83 92 C-88.90111428 86.09888572 -89.78742261 77.23419448 -90.19140625 69.1875 C-90.18804159 66.11893272 -90.13747898 63.06527198 -90 60 C-89.34 60.33 -88.68 60.66 -88 61 C-80.56034011 61.68864834 -75.05134619 61.57212823 -69 57 C-65.42093666 49.84187331 -68.71086886 40.38914945 -70.83203125 33.26171875 C-71.99322739 30.01891348 -73.3931112 27.04341977 -75 24 C-74.7834375 24.82242188 -74.566875 25.64484375 -74.34375 26.4921875 C-72.32242431 34.59620623 -70.45363509 42.17898 -73.0625 50.3125 C-75.94501706 54.31083011 -79.08852833 57.35363081 -84.0234375 58.44921875 C-89.16859382 58.73506077 -92.08301901 57.13358479 -96 54 C-96.825 53.443125 -97.65 52.88625 -98.5 52.3125 C-103.34953882 47.82667659 -107.86406713 41.80927938 -108.1875 35.125 C-108.15842146 31.92636109 -107.81581501 29.72372251 -106 27 C-106.66 26.67 -107.32 26.34 -108 26 C-102.25 21 -102.25 21 -100 21 C-100.33 20.01 -100.66 19.02 -101 18 C-100 15 -100 15 -97.15625 13.39453125 C-82.51439807 7.05911455 -82.51439807 7.05911455 -77 9 C-75.1858309 10.60598576 -73.82709471 12.29278714 -72.38671875 14.23828125 C-70.2615918 16.93809041 -68.24676765 17.96103435 -65 19 C-58.94363122 18.80143053 -53.65882727 17.08276282 -48 15 C-48 14.34 -48 13.68 -48 13 C-45.625 11.3125 -45.625 11.3125 -43 10 C-42.01 10.495 -42.01 10.495 -41 11 C-40.01 10.67 -39.02 10.34 -38 10 C-38 10.99 -38 11.98 -38 13 C-36.68 12.67 -35.36 12.34 -34 12 C-34 12.66 -34 13.32 -34 14 C-31.93690624 13.88521587 -29.87451646 13.75773802 -27.8125 13.625 C-26.08966797 13.52058594 -26.08966797 13.52058594 -24.33203125 13.4140625 C-21.17009505 13.02113725 -18.82173935 12.46005596 -16 11 C-15.71125 10.2575 -15.4225 9.515 -15.125 8.75 C-12.47647858 2.27583652 -6.97496486 -1.46841365 0 0 Z " fill="#FBFBFD" transform="translate(233,76)"/>
<path d="M0 0 C0.656016 7.42373863 1.30824637 14.84779985 1.95575714 22.27228546 C2.25659672 25.7204247 2.55869819 29.16844332 2.86376953 32.61621094 C3.21511162 36.58755737 3.56081052 40.55938562 3.90625 44.53125 C4.0156189 45.75863892 4.12498779 46.98602783 4.2376709 48.25061035 C4.75017774 54.19259612 5.1290931 60.03589856 5 66 C4.13947021 66.16604736 3.27894043 66.33209473 2.39233398 66.50317383 C-0.87873948 67.13461037 -4.14972403 67.76650391 -7.4206543 68.39868164 C-8.82166199 68.66936533 -10.22270235 68.93988003 -11.6237793 69.21020508 C-13.66724681 69.60450693 -15.71061183 69.99933342 -17.75390625 70.39453125 C-18.43397232 70.52606094 -19.11403839 70.65759064 -19.81471252 70.79310608 C-25.78849659 71.95201003 -31.75356676 73.15231225 -37.71679688 74.36425781 C-41.82008177 75.15879632 -45.9360464 75.79015396 -50.0703125 76.3984375 C-56.53364338 77.38785396 -62.97759854 78.49538618 -69.42358398 79.59155273 C-74.93987178 80.52147585 -80.44286259 81.35598288 -86 82 C-87.61123216 74.63212013 -88.66380118 67.28042742 -89.5078125 59.7890625 C-89.63815887 58.65850433 -89.76850525 57.52794617 -89.90280151 56.36312866 C-90.17531068 53.99182547 -90.44580011 51.62028938 -90.71435547 49.24853516 C-91.12621021 45.61432106 -91.54503245 41.98095896 -91.96484375 38.34765625 C-92.22957499 36.03650507 -92.49391189 33.72530868 -92.7578125 31.4140625 C-92.88278107 30.32864166 -93.00774963 29.24322083 -93.13650513 28.12490845 C-93.25017426 27.11640839 -93.36384338 26.10790833 -93.48095703 25.06884766 C-93.58151398 24.18411774 -93.68207092 23.29938782 -93.78567505 22.3878479 C-94 20 -94 20 -94 16 C-90.60231132 14.96841259 -87.47860037 14.86622404 -83.9375 14.875 C-82.89464844 14.87242187 -81.85179687 14.86984375 -80.77734375 14.8671875 C-78 15 -78 15 -75 16 C-68.59807664 16.52260599 -63.58542752 16.4908922 -58 13 C-57.01 12.67 -56.02 12.34 -55 12 C-54.67 11.01 -54.34 10.02 -54 9 C-52.84064941 8.79842285 -51.68129883 8.5968457 -50.48681641 8.38916016 C-46.1441475 7.63375257 -41.80176935 6.87668465 -37.45947266 6.11914062 C-35.58780556 5.79284827 -33.71606217 5.46699325 -31.84423828 5.14160156 C-29.13813939 4.67110117 -26.432328 4.19897596 -23.7265625 3.7265625 C-22.90322418 3.58376862 -22.07988586 3.44097473 -21.2315979 3.29385376 C-16.21084212 2.41533999 -11.22042665 1.44430793 -6.23617554 0.37680054 C-4 0 -4 0 0 0 Z " fill="#F9F9FD" transform="translate(286,171)"/>
<path d="M0 0 C0.33 0 0.66 0 1 0 C1.57550837 5.53123235 2.1449515 11.06304465 2.70898438 16.59545898 C2.90136204 18.47420762 3.09534465 20.35279268 3.29101562 22.23120117 C3.57332162 24.94407535 3.84969197 27.65750153 4.125 30.37109375 C4.21249512 31.19959335 4.29999023 32.02809296 4.39013672 32.88169861 C4.93063078 38.28205125 5.07614447 43.57232731 5 49 C-41.07448085 57.92771501 -41.07448085 57.92771501 -59.1875 61.0625 C-60.9358313 61.36740356 -60.9358313 61.36740356 -62.71948242 61.6784668 C-66.90701596 62.39093243 -70.74078212 63 -75 63 C-75.97675638 59.51224254 -76.54735444 57.28082125 -75.09960938 53.89306641 C-73.73199828 51.63097204 -72.27687954 49.47021191 -70.75 47.3125 C-70.24597656 46.56677734 -69.74195313 45.82105469 -69.22265625 45.05273438 C-66.89949059 41.63505891 -64.49171327 38.29680579 -62 35 C-57.51658188 35.49815757 -53.13202042 36.13724957 -48.7109375 37.0390625 C-47.3813501 37.30904053 -47.3813501 37.30904053 -46.02490234 37.58447266 C-45.02257568 37.79015869 -45.02257568 37.79015869 -44 38 C-43.61666504 37.3387915 -43.23333008 36.67758301 -42.83837891 35.99633789 C-41.10600851 33.01520186 -39.36562559 30.03882287 -37.625 27.0625 C-37.02171875 26.02158203 -36.4184375 24.98066406 -35.796875 23.90820312 C-35.21679688 22.91884766 -34.63671875 21.92949219 -34.0390625 20.91015625 C-33.50490723 19.99371338 -32.97075195 19.07727051 -32.42041016 18.13305664 C-31 16 -31 16 -29 15 C-27.21240234 15.89624023 -27.21240234 15.89624023 -25.0859375 17.30859375 C-24.32539063 17.80810547 -23.56484375 18.30761719 -22.78125 18.82226562 C-21.9871875 19.35529297 -21.193125 19.88832031 -20.375 20.4375 C-19.57320313 20.96666016 -18.77140625 21.49582031 -17.9453125 22.04101562 C-15.95869366 23.35360307 -13.97732405 24.67346881 -12 26 C-11.76410156 25.21238281 -11.52820313 24.42476562 -11.28515625 23.61328125 C-9.6376369 18.98119796 -7.56036739 14.61768613 -5.4375 10.1875 C-5.02564453 9.31673828 -4.61378906 8.44597656 -4.18945312 7.54882812 C-1.13502139 1.13502139 -1.13502139 1.13502139 0 0 Z " fill="#632FA2" transform="translate(280,183)"/>
<path d="M0 0 C2.35404926 1.83216098 3.38652793 3.39762569 5 6 C5 6.66 5 7.32 5 8 C4.34 8 3.68 8 3 8 C1.74168782 12.91885671 2.18989002 16.38035962 3.4375 21.3125 C5.17345584 28.27232295 6.15905981 34.38646058 3.9375 41.3125 C1.05498294 45.31083011 -2.08852833 48.35363081 -7.0234375 49.44921875 C-12.16859382 49.73506077 -15.08301901 48.13358479 -19 45 C-19.825 44.443125 -20.65 43.88625 -21.5 43.3125 C-26.34953882 38.82667659 -30.86406713 32.80927938 -31.1875 26.125 C-31.15842146 22.92636109 -30.81581501 20.72372251 -29 18 C-29.66 17.67 -30.32 17.34 -31 17 C-25.25 12 -25.25 12 -23 12 C-23.33 11.01 -23.66 10.02 -24 9 C-23 6 -23 6 -20.15625 4.39453125 C-5.70109513 -1.86010307 -5.70109513 -1.86010307 0 0 Z " fill="#FBF9FD" transform="translate(156,85)"/>
<path d="M0 0 C3.16000656 2.6333388 4.7021256 4.10637681 6 8 C7.01171728 22.13087093 7.01171728 22.13087093 4.5 27.1875 C0.53235649 31.65109895 -2.9738307 33.56885222 -8.90625 34.4140625 C-14.81384254 34.6975076 -19.53852486 34.25275765 -24.375 30.67578125 C-28.49834361 26.42358315 -30.18504708 21.28430952 -30.4375 15.4375 C-30.13230819 9.61850957 -28.79211906 4.79211906 -24.625 0.625 C-16.50308622 -4.40285139 -8.50237566 -4.09733532 0 0 Z " fill="#F4F2FB" transform="translate(282,282)"/>
<path d="M0 0 C3.691875 -0.061875 7.38375 -0.12375 11.1875 -0.1875 C12.3427417 -0.21481201 13.4979834 -0.24212402 14.68823242 -0.27026367 C15.60967041 -0.27775635 16.5311084 -0.28524902 17.48046875 -0.29296875 C18.41785889 -0.3086792 19.35524902 -0.32438965 20.32104492 -0.34057617 C25.28981179 0.2911043 28.8259879 3.25920003 32 7 C34.01701053 12.99795236 34.09762802 21.00177577 31.875 26.9375 C29.44259546 30.91042741 26.69447208 34.10821173 22.10644531 35.62670898 C19.7723589 36.04034113 17.6047555 36.112851 15.234375 36.09765625 C14.43225586 36.09515869 13.63013672 36.09266113 12.80371094 36.09008789 C11.79598633 36.08098389 10.78826172 36.07187988 9.75 36.0625 C6.5325 36.041875 3.315 36.02125 0 36 C0 24.12 0 12.24 0 0 Z " fill="#F5F1FB" transform="translate(215,280)"/>
<path d="M0 0 C3.67125 -0.061875 7.3425 -0.12375 11.125 -0.1875 C12.84420654 -0.22846802 12.84420654 -0.22846802 14.59814453 -0.27026367 C20.12699669 -0.31534374 24.28997988 -0.25725418 29 3 C33.6173853 8.46795627 33.44131991 13.60547911 33.43359375 20.59765625 C32.72661892 26.14517948 30.42946239 30.55486259 26 34 C20.27439047 36.08877346 15.11233339 36.24367567 9.0625 36.125 C6.071875 36.08375 3.08125 36.0425 0 36 C0 24.12 0 12.24 0 0 Z " fill="#F4F1F8" transform="translate(82,280)"/>
<path d="M0 0 C1.32451172 0.77923828 1.32451172 0.77923828 2.67578125 1.57421875 C5.82000348 3.41069833 8.98535966 5.20632104 12.16650391 6.97802734 C13.74496738 7.85784733 15.3165364 8.750016 16.88671875 9.64453125 C24.08479749 13.37806387 30.9699692 14.34783023 39 13 C42.47756847 11.46905878 45.14961936 9.48898268 48 7 C48.62003906 6.50113281 49.24007812 6.00226563 49.87890625 5.48828125 C51.27759241 4.35570243 52.64340639 3.18267135 54 2 C53.34 3.98 52.68 5.96 52 8 C52.89203125 7.97679687 53.7840625 7.95359375 54.703125 7.9296875 C55.87359375 7.91164062 57.0440625 7.89359375 58.25 7.875 C59.99023438 7.84019531 59.99023438 7.84019531 61.765625 7.8046875 C64.908009 7.99444499 66.31814256 8.52650798 69 10 C68.08504761 10.14248169 68.08504761 10.14248169 67.15161133 10.2878418 C64.36809113 10.7334695 61.59074523 11.21013199 58.8125 11.6875 C57.37293945 11.91083008 57.37293945 11.91083008 55.90429688 12.13867188 C49.96512754 13.18676058 47.04992098 14.2985378 43 19 C39.3832821 20.91169375 36.43753663 21.24905359 32.375 21.1875 C31.43398437 21.18105469 30.49296875 21.17460937 29.5234375 21.16796875 C27 21 27 21 24 20 C21.26134713 19.92948886 18.54972412 19.90642235 15.8125 19.9375 C15.06291016 19.94201172 14.31332031 19.94652344 13.54101562 19.95117188 C11.69397617 19.96293646 9.84697787 19.98087135 8 20 C8.19335938 21.17691406 8.38671875 22.35382813 8.5859375 23.56640625 C10.11694492 33.13962467 11.41432131 42.72708551 12.375 52.375 C12.48376465 53.34252197 12.5925293 54.31004395 12.70458984 55.30688477 C13.20882146 60.77323568 13.14284109 64.22990108 10 69 C9.34 68.67 8.68 68.34 8 68 C7.65844727 65.65625 7.65844727 65.65625 7.50390625 62.5 C7.17429284 57.19720848 6.68770324 51.95648471 6.02734375 46.6875 C5.89533066 45.62354004 5.89533066 45.62354004 5.76065063 44.53808594 C5.48865237 42.35841627 5.21359092 40.17915483 4.9375 38 C4.56811784 35.08375809 4.20276234 32.16705253 3.83984375 29.25 C3.67863037 27.97640625 3.51741699 26.7028125 3.35131836 25.390625 C3.05754016 22.55532855 2.92703046 19.84547255 3 17 C7.40914783 15.89771304 11.48382401 15.92345464 16 16 C16 15.34 16 14.68 16 14 C15.45730469 13.76152344 14.91460937 13.52304688 14.35546875 13.27734375 C11.38922775 11.6687852 8.92990003 9.69066638 6.3125 7.5625 C5.33925781 6.78003906 4.36601562 5.99757812 3.36328125 5.19140625 C1 3 1 3 0 0 Z " fill="#68379B" transform="translate(184,167)"/>
<path d="M0 0 C0.72445313 -0.00386719 1.44890625 -0.00773437 2.1953125 -0.01171875 C5.39282879 -0.00581927 7.94582607 0.10694202 11 1.125 C11 3.105 11 5.085 11 7.125 C9.83082031 7.06699219 8.66164063 7.00898438 7.45703125 6.94921875 C5.9088942 6.90230551 4.36071383 6.85680702 2.8125 6.8125 C2.04357422 6.77060547 1.27464844 6.72871094 0.48242188 6.68554688 C-3.74674847 6.59479215 -5.49716362 6.75746759 -9.01953125 9.33203125 C-12.05358043 13.61081856 -11.75571722 17.0758124 -11 22.125 C-9.66958785 25.48604122 -8.80982878 26.66536745 -5.6875 28.4375 C-2.69573139 29.20283616 -0.07603375 29.26807134 3 29.125 C3.33 26.485 3.66 23.845 4 21.125 C2.02 21.125 0.04 21.125 -2 21.125 C-1.67 19.145 -1.34 17.165 -1 15.125 C2.96 15.125 6.92 15.125 11 15.125 C11 21.395 11 27.665 11 34.125 C4.08389309 36.43036897 -2.82784633 37.60605901 -9.875 35 C-14.07177192 32.48193685 -16.78261912 29.55976177 -19 25.125 C-19.17603147 22.71250308 -19.26744968 20.29349105 -19.3125 17.875 C-19.34988281 16.57046875 -19.38726562 15.2659375 -19.42578125 13.921875 C-18.84752756 8.76533747 -16.79788732 5.70496158 -12.9375 2.3125 C-8.76858511 -0.24264138 -4.72071461 -0.02519954 0 0 Z " fill="#F5F3FC" transform="translate(312,279.875)"/>
<path d="M0 0 C2.05078125 0.03255208 4.1015625 0.06510417 6.15234375 0.09765625 C9.76252893 7.71459998 13.18057703 15.3979525 16.46484375 23.16015625 C16.81417969 23.98104736 17.16351563 24.80193848 17.5234375 25.64770508 C18.01457031 26.81595825 18.01457031 26.81595825 18.515625 28.0078125 C18.95322144 29.04627319 18.95322144 29.04627319 19.3996582 30.10571289 C20.14723854 32.08414557 20.6825908 34.03726041 21.15234375 36.09765625 C18.84234375 36.09765625 16.53234375 36.09765625 14.15234375 36.09765625 C10.15234375 29.47265625 10.15234375 29.47265625 10.15234375 26.09765625 C6.19234375 26.09765625 2.23234375 26.09765625 -1.84765625 26.09765625 C-1.18765625 24.11765625 -0.52765625 22.13765625 0.15234375 20.09765625 C2.46234375 20.09765625 4.77234375 20.09765625 7.15234375 20.09765625 C5.50234375 16.46765625 3.85234375 12.83765625 2.15234375 9.09765625 C-1.53722683 16.84448657 -4.89310031 24.56688354 -7.8671875 32.61328125 C-8.84765625 35.09765625 -8.84765625 35.09765625 -9.84765625 36.09765625 C-12.18063058 36.13858562 -14.5147085 36.14007348 -16.84765625 36.09765625 C-14.42737485 28.39227057 -11.39082992 21.0230633 -8.22265625 13.59765625 C-7.71992187 12.4065625 -7.2171875 11.21546875 -6.69921875 9.98828125 C-2.51404741 0.13287777 -2.51404741 0.13287777 0 0 Z " fill="#F5F3FC" transform="translate(131.84765625,279.90234375)"/>
<path d="M0 0 C2.05078125 0.03255208 4.1015625 0.06510417 6.15234375 0.09765625 C7.90647968 3.88742258 9.65487781 7.67981032 11.40234375 11.47265625 C11.89347656 12.53355469 12.38460937 13.59445312 12.890625 14.6875 C21.15234375 32.64296875 21.15234375 32.64296875 21.15234375 36.09765625 C18.84234375 36.09765625 16.53234375 36.09765625 14.15234375 36.09765625 C13.91902344 35.45957031 13.68570313 34.82148438 13.4453125 34.1640625 C12.23587675 31.42466917 11.15020185 29.34101386 9.15234375 27.09765625 C5.4555538 26.0073109 1.98676147 25.92977456 -1.84765625 26.09765625 C-1.18765625 24.11765625 -0.52765625 22.13765625 0.15234375 20.09765625 C2.46234375 20.09765625 4.77234375 20.09765625 7.15234375 20.09765625 C6.86359375 19.48277344 6.57484375 18.86789062 6.27734375 18.234375 C5.90609375 17.42613281 5.53484375 16.61789062 5.15234375 15.78515625 C4.78109375 14.98464844 4.40984375 14.18414062 4.02734375 13.359375 C3.15234375 11.09765625 3.15234375 11.09765625 3.15234375 8.09765625 C2.49234375 8.09765625 1.83234375 8.09765625 1.15234375 8.09765625 C0.97783691 8.63712891 0.80333008 9.17660156 0.62353516 9.73242188 C-1.24220643 15.42385128 -3.2931321 21.01955206 -5.47265625 26.59765625 C-5.78460938 27.4071875 -6.0965625 28.21671875 -6.41796875 29.05078125 C-6.71703125 29.8190625 -7.01609375 30.58734375 -7.32421875 31.37890625 C-7.72761475 32.4162793 -7.72761475 32.4162793 -8.13916016 33.47460938 C-8.84765625 35.09765625 -8.84765625 35.09765625 -9.84765625 36.09765625 C-12.18063058 36.13858562 -14.5147085 36.14007348 -16.84765625 36.09765625 C-14.42737485 28.39227057 -11.39082992 21.0230633 -8.22265625 13.59765625 C-7.71992188 12.4065625 -7.2171875 11.21546875 -6.69921875 9.98828125 C-2.51404741 0.13287777 -2.51404741 0.13287777 0 0 Z " fill="#F7F3FC" transform="translate(189.84765625,279.90234375)"/>
<path d="M0 0 C3.41563161 2.71856394 4.69024158 4.14445682 5.40234375 8.41015625 C5.59700527 13.57257966 5.10865336 17.71220227 2 22 C-1.75663934 24.54125602 -5.47134197 24.08609182 -9.81640625 23.77734375 C-13.07735317 22.61646998 -14.2011575 20.91412484 -16 18 C-16.86226134 13.19512302 -17.36405778 7.47644439 -14.94140625 3.078125 C-10.36503679 -1.53898365 -5.99994357 -1.63446739 0 0 Z " fill="#6831A2" transform="translate(276,286)"/>
<path d="M0 0 C12.25039333 -0.49496539 12.25039333 -0.49496539 15.86328125 1.890625 C18.78507219 4.77502556 19.15398072 6.32370618 19.1875 10.3125 C19.1289536 14.87180076 18.51658396 18.15372387 15.5625 21.75 C10.87785027 25.49771978 6.24396021 24 0 24 C0 16.08 0 8.16 0 0 Z " fill="#6730A1" transform="translate(222,286)"/>
<path d="M0 0 C12.25039333 -0.49496539 12.25039333 -0.49496539 15.86328125 1.890625 C18.78507219 4.77502556 19.15398072 6.32370618 19.1875 10.3125 C19.1289536 14.87180076 18.51658396 18.15372387 15.5625 21.75 C10.87785027 25.49771978 6.24396021 24 0 24 C0 16.08 0 8.16 0 0 Z " fill="#69339F" transform="translate(89,286)"/>
<path d="M0 0 C9.24 0 18.48 0 28 0 C28 1.98 28 3.96 28 6 C24.7 6 21.4 6 18 6 C18 15.9 18 25.8 18 36 C15.36 36 12.72 36 10 36 C10 26.1 10 16.2 10 6 C6.7 6 3.4 6 0 6 C0 4.02 0 2.04 0 0 Z " fill="#EDE9F9" transform="translate(149,280)"/>
<path d="M0 0 C1.5883272 4.1693589 2.30442659 7.53507661 2 12 C1 14 1 14 -1.36328125 14.88671875 C-2.33652344 15.15097656 -3.30976563 15.41523438 -4.3125 15.6875 C-5.27800781 15.95949219 -6.24351562 16.23148438 -7.23828125 16.51171875 C-9.99969072 16.99994532 -11.4458164 17.11075975 -14 16 C-16.50031654 12.24952518 -16.53603554 10.44143734 -16 6 C-13.91052231 3.33011184 -12.25444343 1.54359215 -9.125 0.1875 C-6.07703324 -0.08143824 -3.05723104 -0.0587929 0 0 Z " fill="#67309F" transform="translate(200,123)"/>
<path d="M0 0 C2.86748334 3.36216614 4.17988567 6.78390451 5.625 10.9375 C6.05039063 12.14277344 6.47578125 13.34804687 6.9140625 14.58984375 C8.95138802 20.98763216 9.90728371 27.29618144 9 34 C6.46379937 37.45205086 3.92402932 39.38631403 0 41 C-2.578125 41.1953125 -2.578125 41.1953125 -5.25 41.125 C-6.58804688 41.09792969 -6.58804688 41.09792969 -7.953125 41.0703125 C-8.62859375 41.04710937 -9.3040625 41.02390625 -10 41 C-10.495 39.515 -10.495 39.515 -11 38 C-10.31292969 37.68546875 -9.62585938 37.3709375 -8.91796875 37.046875 C-8.01691406 36.61890625 -7.11585938 36.1909375 -6.1875 35.75 C-5.29417969 35.33234375 -4.40085938 34.9146875 -3.48046875 34.484375 C0.22209994 32.2686646 1.64896544 30.05310368 3 26 C3.70689855 18.95820289 2.40792947 12.58913344 0.65625 5.78515625 C0 3 0 3 0 0 Z " fill="#67309E" transform="translate(157,97)"/>
<path d="M0 0 C1.09324611 3.37912433 1.0935707 4.76607326 -0.25 8.125 C-3.13793103 12.86945813 -3.13793103 12.86945813 -5 14 C-11.38280314 13.87956975 -15.55110571 11.44889429 -20 7 C-19.875 5 -19.875 5 -19 3 C-13.57745626 -0.81586411 -6.32880237 -0.12657605 0 0 Z " fill="#6733A2" transform="translate(245,150)"/>
<path d="M0 0 C0.33 0 0.66 0 1 0 C1.53348052 4.39439485 2.04957296 8.79066252 2.5625 13.1875 C2.71396484 14.43337891 2.86542969 15.67925781 3.02148438 16.96289062 C3.16005859 18.16494141 3.29863281 19.36699219 3.44140625 20.60546875 C3.57232666 21.71043701 3.70324707 22.81540527 3.83813477 23.95385742 C4.09640817 28.8143058 2.90006779 32.56650849 1 37 C0.34 36.67 -0.32 36.34 -1 36 C-1.37890625 33.55078125 -1.37890625 33.55078125 -1.5625 30.3125 C-1.78535679 26.57758525 -2.01312603 22.85546788 -2.3515625 19.12890625 C-2.46242187 17.89011719 -2.57328125 16.65132812 -2.6875 15.375 C-2.79449219 14.22773438 -2.90148437 13.08046875 -3.01171875 11.8984375 C-3 9 -3 9 -1 6 C-0.60986284 4.0103005 -0.26797351 2.00980131 0 0 Z " fill="#7145A1" transform="translate(193,199)"/>
<path d="M0 0 C3.72169726 0.25375209 5.55712024 0.60373916 8.375 3.125 C10.36368076 6.6434352 10.31215868 9.01997685 10 13 C6.75 13.375 6.75 13.375 3 13 C0.5 10.4375 0.5 10.4375 -1 7 C-0.75 3.125 -0.75 3.125 0 0 Z " fill="#69359E" transform="translate(229,117)"/>
<path d="M0 0 C2.86748334 3.36216614 4.17988567 6.78390451 5.625 10.9375 C6.05039063 12.14277344 6.47578125 13.34804687 6.9140625 14.58984375 C8.47434435 19.48957777 9.1244396 23.67151313 9.0625 28.8125 C9.05347656 29.78832031 9.04445312 30.76414062 9.03515625 31.76953125 C9.02355469 32.50558594 9.01195312 33.24164063 9 34 C8.01 34.495 8.01 34.495 7 35 C6.67 31.04 6.34 27.08 6 23 C5.34 25.31 4.68 27.62 4 30 C3.34 29.67 2.68 29.34 2 29 C2.33 28.01 2.66 27.02 3 26 C3.70689855 18.95820289 2.40792947 12.58913344 0.65625 5.78515625 C0 3 0 3 0 0 Z " fill="#6D489F" transform="translate(157,97)"/>
<path d="M0 0 C2.59308835 2.44543919 3.64326898 4.25645522 4.6875 7.6875 C5.06455078 8.89986328 5.06455078 8.89986328 5.44921875 10.13671875 C5.63097656 10.75160156 5.81273437 11.36648438 6 12 C3.69 12.33 1.38 12.66 -1 13 C-1.33 13.99 -1.66 14.98 -2 16 C-2.66 16 -3.32 16 -4 16 C-5.6446674 18.46326712 -5.6446674 18.46326712 -7 21 C-8 19 -8 19 -7.37915039 17.02880859 C-7.03875732 16.24328613 -6.69836426 15.45776367 -6.34765625 14.6484375 C-5.98349609 13.79765625 -5.61933594 12.946875 -5.24414062 12.0703125 C-4.65922852 10.73613281 -4.65922852 10.73613281 -4.0625 9.375 C-3.48338867 8.02921875 -3.48338867 8.02921875 -2.89257812 6.65625 C-1.93529275 4.43440246 -0.97085723 2.21594292 0 0 Z " fill="#6A3C9C" transform="translate(133,288)"/>
<path d="M0 0 C9.36852997 -0.79294768 15.5961981 -0.00530598 23 6 C25.33803855 7.98225008 26.41289533 9.27924914 28 12 C27.3125 15.375 27.3125 15.375 26 18 C22.26153846 13.43076923 22.26153846 13.43076923 20.9375 11.25 C17.65544328 5.96224195 13.92276236 3.78467343 8 2 C5.30282838 1.47306912 2.74918928 1.19994104 0 1 C0 0.67 0 0.34 0 0 Z " fill="#6D40A0" transform="translate(154,213)"/>
<path d="M0 0 C0.66 0 1.32 0 2 0 C2.6708712 1.6232687 3.33657029 3.24867578 4 4.875 C4.556875 6.23238281 4.556875 6.23238281 5.125 7.6171875 C6 10 6 10 6 12 C4.329375 12.12375 4.329375 12.12375 2.625 12.25 C-1.05753944 12.57873787 -1.05753944 12.57873787 -2.4375 15.0625 C-2.623125 15.701875 -2.80875 16.34125 -3 17 C-3.99 16.67 -4.98 16.34 -6 16 C-4.25192871 10.53262809 -2.34205919 5.24175152 0 0 Z " fill="#6E3A9E" transform="translate(191,288)"/>
<path d="M0 0 C0.94101563 0.54269531 1.88203125 1.08539063 2.8515625 1.64453125 C4.10932463 2.36727516 5.36713997 3.08992648 6.625 3.8125 C7.55119141 4.34713867 7.55119141 4.34713867 8.49609375 4.89257812 C12.27265506 7.05913172 16.08447772 9.0904299 20 11 C17 13 17 13 14 14 C12.37426758 13.04370117 12.37426758 13.04370117 10.64453125 11.54296875 C10.02255859 11.00736328 9.40058594 10.47175781 8.75976562 9.91992188 C8.11716797 9.34822266 7.47457031 8.77652344 6.8125 8.1875 C6.15830078 7.62740234 5.50410156 7.06730469 4.83007812 6.49023438 C1.28552729 3.39660659 1.28552729 3.39660659 0 2 C0 1.34 0 0.68 0 0 Z " fill="#7349A0" transform="translate(184,167)"/>
<path d="M0 0 C0.33 0 0.66 0 1 0 C1.33 4.95 1.66 9.9 2 15 C2.66 14.67 3.32 14.34 4 14 C3.25 18.75 3.25 18.75 1 21 C0.67 20.34 0.34 19.68 0 19 C-0.33 19.99 -0.66 20.98 -1 22 C-2.65 22.33 -4.3 22.66 -6 23 C-5.360625 22.071875 -4.72125 21.14375 -4.0625 20.1875 C-1.10924935 15.62338536 -0.78125346 12.16523241 -0.4375 6.8125 C-0.35371094 5.54019531 -0.26992187 4.26789063 -0.18359375 2.95703125 C-0.12300781 1.98121094 -0.06242187 1.00539063 0 0 Z " fill="#5F3D8D" transform="translate(115,290)"/>
<path d="M0 0 C0.66 0 1.32 0 2 0 C3.00496852 3.01490557 3.10335303 5.04181692 3.0625 8.1875 C3.05347656 9.08855469 3.04445312 9.98960937 3.03515625 10.91796875 C3.02355469 11.60503906 3.01195312 12.29210937 3 13 C2.01 13.495 2.01 13.495 1 14 C1 13.01 1 12.02 1 11 C-1.31 11 -3.62 11 -6 11 C-6 10.67 -6 10.34 -6 10 C-4.02 10 -2.04 10 0 10 C-0.08378906 9.36191406 -0.16757813 8.72382813 -0.25390625 8.06640625 C-0.40666016 6.82697266 -0.40666016 6.82697266 -0.5625 5.5625 C-0.66691406 4.73878906 -0.77132812 3.91507812 -0.87890625 3.06640625 C-0.91886719 2.38449219 -0.95882812 1.70257813 -1 1 C-0.67 0.67 -0.34 0.34 0 0 Z " fill="#E8DEF8" transform="translate(239,120)"/>
<path d="M0 0 C3.05906926 2.51066469 3.75191278 4.90059933 4.6875 8.6875 C5.06455078 10.17830078 5.06455078 10.17830078 5.44921875 11.69921875 C5.63097656 12.45847656 5.81273437 13.21773437 6 14 C5.34 14 4.68 14 4 14 C3.01 15.485 3.01 15.485 2 17 C1.66291092 14.91727106 1.33046884 12.83378963 1 10.75 C0.814375 9.58984375 0.62875 8.4296875 0.4375 7.234375 C0 4 0 4 0 0 Z " fill="#78519E" transform="translate(230,81)"/>
<path d="M0 0 C0.33 0.99 0.66 1.98 1 3 C-0.0625 4.5625 -0.0625 4.5625 -2 6 C-6.74844777 5.82732917 -9.3658435 4.95524814 -13 2 C-12.14535156 1.93941406 -11.29070312 1.87882813 -10.41015625 1.81640625 C-8.75306641 1.69072266 -8.75306641 1.69072266 -7.0625 1.5625 C-5.96035156 1.48128906 -4.85820312 1.40007812 -3.72265625 1.31640625 C-1.08890097 1.29581916 -1.08890097 1.29581916 0 0 Z " fill="#6D3A9D" transform="translate(242,158)"/>
<path d="M0 0 C2.35448165 2.55068845 2.98327924 3.71017358 3.1875 7.25 C3.125625 8.1575 3.06375 9.065 3 10 C0.03 10 -2.94 10 -6 10 C-5.67 9.34 -5.34 8.68 -5 8 C-3.68 8 -2.36 8 -1 8 C-0.17361624 5.10765685 0 3.11257569 0 0 Z " fill="#643A98" transform="translate(253,100)"/>
<path d="M0 0 C3.42931954 3.7559214 4.56429083 8.23466745 6 13 C5.01 13.99 4.02 14.98 3 16 C2.49595192 13.89679937 1.99689492 11.79240209 1.5 9.6875 C1.08234375 7.92986328 1.08234375 7.92986328 0.65625 6.13671875 C0 3 0 3 0 0 Z " fill="#77539D" transform="translate(157,97)"/>
<path d="M0 0 C2.02907167 3.3146667 2.12742133 5.4315979 1.625 9.25 C1.51414063 10.14203125 1.40328125 11.0340625 1.2890625 11.953125 C1.19367188 12.62859375 1.09828125 13.3040625 1 14 C0.34 14 -0.32 14 -1 14 C-1.02705729 12.22925083 -1.04642195 10.45838289 -1.0625 8.6875 C-1.07410156 7.70136719 -1.08570313 6.71523437 -1.09765625 5.69921875 C-1 3 -1 3 0 0 Z " fill="#7533A6" transform="translate(161,178)"/>
<path d="M0 0 C0.33 0.66 0.66 1.32 1 2 C0.109375 3.8046875 0.109375 3.8046875 -1.25 5.875 C-1.71277344 6.58398438 -2.17554688 7.29296875 -2.65234375 8.0234375 C-4.04361376 10.06396685 -5.46677786 12.06329835 -7 14 C-7.66 13.67 -8.32 13.34 -9 13 C-7.68889201 11.01989841 -6.37618664 9.04088963 -5.0625 7.0625 C-4.50272461 6.21655273 -4.50272461 6.21655273 -3.93164062 5.35351562 C-1.11328125 1.11328125 -1.11328125 1.11328125 0 0 Z " fill="#7046A0" transform="translate(216,221)"/>
<path d="M0 0 C0 0.66 0 1.32 0 2 C-3.3 2 -6.6 2 -10 2 C-10.33 1.34 -10.66 0.68 -11 0 C-7.01803543 -1.05404945 -4.01804691 -0.84098656 0 0 Z " fill="#743EA1" transform="translate(292,238)"/>
<path d="M0 0 C2.12472576 -0.05386629 4.24983652 -0.09273071 6.375 -0.125 C7.55835938 -0.14820313 8.74171875 -0.17140625 9.9609375 -0.1953125 C13 0 13 0 15 2 C11.46905698 3.20220203 8.87101018 2.79532349 5.25 2.0625 C4.26515625 1.86785156 3.2803125 1.67320312 2.265625 1.47265625 C1.51796875 1.31667969 0.7703125 1.16070312 0 1 C0 0.67 0 0.34 0 0 Z " fill="#8169A1" transform="translate(154,213)"/>
<path d="M0 0 C1.98 0.99 1.98 0.99 4 2 C3.34 4.64 2.68 7.28 2 10 C-0.09350689 6.5980513 -0.17942163 3.94727588 0 0 Z " fill="#6E3FA6" transform="translate(233,94)"/>
<path d="M0 0 C0.66 0 1.32 0 2 0 C2 2.64 2 5.28 2 8 C0.68 7.67 -0.64 7.34 -2 7 C-1.34 4.69 -0.68 2.38 0 0 Z " fill="#724EA1" transform="translate(187,297)"/>
<path d="M0 0 C2.97 0.495 2.97 0.495 6 1 C6.33 2.65 6.66 4.3 7 6 C3.535 4.02 3.535 4.02 0 2 C0 1.34 0 0.68 0 0 Z " fill="#663F94" transform="translate(167,215)"/>
<path d="M0 0 C0.66 0 1.32 0 2 0 C2 1.98 2 3.96 2 6 C1.01 6.495 1.01 6.495 0 7 C0 6.01 0 5.02 0 4 C-2.31 4 -4.62 4 -7 4 C-7 3.67 -7 3.34 -7 3 C-4.69 3 -2.38 3 0 3 C0 2.01 0 1.02 0 0 Z " fill="#E3E6EF" transform="translate(240,127)"/>
<path d="M0 0 C0.66 0 1.32 0 2 0 C0.7508258 3.45925163 -0.67527795 6.14693203 -3 9 C-3.66 8.67 -4.32 8.34 -5 8 C-4.21718695 6.66144944 -3.42348123 5.32926356 -2.625 4 C-2.18414062 3.2575 -1.74328125 2.515 -1.2890625 1.75 C-0.86367187 1.1725 -0.43828125 0.595 0 0 Z " fill="#683D97" transform="translate(245,206)"/>
<path d="M0 0 C0.33 0.99 0.66 1.98 1 3 C-2.4352048 5.29013653 -3.985331 5.17842973 -8 5 C-5.37352812 3.24901874 -2.71224618 1.61268692 0 0 Z " fill="#6A429D" transform="translate(284,311)"/>
<path d="M0 0 C0.33 0.66 0.66 1.32 1 2 C2.98 2 4.96 2 7 2 C6.67 2.66 6.34 3.32 6 4 C3.69 4 1.38 4 -1 4 C-0.67 2.68 -0.34 1.36 0 0 Z " fill="#DDD6F0" transform="translate(174,312)"/>
</svg>
